<mxfile host="app.diagrams.net" agent="Mozilla/5.0 (Windows NT 10.0; Win64; x64) AppleWebKit/537.36 (KHTML, like Gecko) Chrome/130.0.0.0 Safari/537.36" version="24.9.0">
  <diagram name="Page-1" id="nbgq9K44ETi6btvKQhUz">
    <mxGraphModel dx="965" dy="510" grid="1" gridSize="10" guides="1" tooltips="1" connect="1" arrows="1" fold="1" page="1" pageScale="1" pageWidth="850" pageHeight="1100" math="0" shadow="0">
      <root>
        <mxCell id="0" />
        <mxCell id="1" parent="0" />
        <mxCell id="V7aqpptvkbhlegluy3NL-3" value="" style="edgeStyle=orthogonalEdgeStyle;rounded=0;orthogonalLoop=1;jettySize=auto;html=1;" edge="1" parent="1" source="V7aqpptvkbhlegluy3NL-1" target="V7aqpptvkbhlegluy3NL-2">
          <mxGeometry relative="1" as="geometry" />
        </mxCell>
        <mxCell id="V7aqpptvkbhlegluy3NL-1" value="start" style="strokeWidth=2;html=1;shape=mxgraph.flowchart.start_1;whiteSpace=wrap;" vertex="1" parent="1">
          <mxGeometry x="375" y="110" width="100" height="60" as="geometry" />
        </mxCell>
        <mxCell id="V7aqpptvkbhlegluy3NL-5" value="" style="edgeStyle=orthogonalEdgeStyle;rounded=0;orthogonalLoop=1;jettySize=auto;html=1;" edge="1" parent="1" source="V7aqpptvkbhlegluy3NL-2" target="V7aqpptvkbhlegluy3NL-4">
          <mxGeometry relative="1" as="geometry" />
        </mxCell>
        <mxCell id="V7aqpptvkbhlegluy3NL-2" value="a = 10 , b = 20 , c = Haha , d = a" style="whiteSpace=wrap;html=1;strokeWidth=2;" vertex="1" parent="1">
          <mxGeometry x="365" y="210" width="120" height="60" as="geometry" />
        </mxCell>
        <mxCell id="V7aqpptvkbhlegluy3NL-7" value="" style="edgeStyle=orthogonalEdgeStyle;rounded=0;orthogonalLoop=1;jettySize=auto;html=1;" edge="1" parent="1" source="V7aqpptvkbhlegluy3NL-4" target="V7aqpptvkbhlegluy3NL-6">
          <mxGeometry relative="1" as="geometry" />
        </mxCell>
        <mxCell id="V7aqpptvkbhlegluy3NL-4" value="แสดงค่า&amp;nbsp;10 20.0 Haha a" style="shape=parallelogram;perimeter=parallelogramPerimeter;whiteSpace=wrap;html=1;fixedSize=1;strokeWidth=2;" vertex="1" parent="1">
          <mxGeometry x="340" y="310" width="170" height="100" as="geometry" />
        </mxCell>
        <mxCell id="V7aqpptvkbhlegluy3NL-6" value="end" style="strokeWidth=2;html=1;shape=mxgraph.flowchart.start_1;whiteSpace=wrap;" vertex="1" parent="1">
          <mxGeometry x="375" y="440" width="100" height="60" as="geometry" />
        </mxCell>
      </root>
    </mxGraphModel>
  </diagram>
</mxfile>
